<?xml version="1.0" encoding="UTF-8" standalone="no"?>
<!-- Created with Inkscape (http://www.inkscape.org/) -->

<svg
   width="512"
   height="512"
   viewBox="0 0 512 512"
   version="1.1"
   id="svg1"
   xml:space="preserve"
   xmlns="http://www.w3.org/2000/svg"
   xmlns:svg="http://www.w3.org/2000/svg"><defs
     id="defs1" /><g
     id="layer1"><path
       id="path3"
       style="fill:#ffffff;fill-opacity:1;stroke:none;stroke-width:10.6618;stroke-linejoin:round;stroke-miterlimit:3;stroke-dasharray:none;stroke-opacity:1;paint-order:fill markers stroke"
       d="m 182.84281,384.19718 c -4e-5,-0.0213 -0.0213,-0.0645 0,-0.0645 70.04299,0 0,0 70.04299,0 0.0214,0 4e-5,0.0432 0,0.0645 h 67.81692 c -3e-5,-0.0213 -0.0213,-0.0645 0,-0.0645 70.043,0 0,0 70.043,0 0.0213,0 4e-5,0.0432 0,0.0645 z m 207.90291,0 h -70.043 c 0.0346,19.31251 15.70091,34.95695 35.0215,34.95695 19.32059,0 34.98696,-15.64444 35.0215,-34.95695 z m -137.85992,0 h -70.04299 c 0.0346,19.31251 15.7009,34.95695 35.02148,34.95695 19.3206,0 34.98698,-15.64444 35.02151,-34.95695 z" /><path
       id="path1"
       style="display:inline;fill:#ffffff;fill-opacity:1;stroke:none;stroke-width:36.5487;stroke-linejoin:round;stroke-miterlimit:3;stroke-opacity:1;paint-order:fill markers stroke"
       d="m 394.62311,117.92928 c -2.10102,0.002 -4.11171,0.0598 -6.00976,0.12493 v 44.07153 c 7.21528,0.52125 19.66863,2.97473 27.71442,14.55584 7.28189,10.48149 16.86245,30.23609 24.92403,53.9816 8.06159,23.7455 14.47047,51.2781 14.47047,76.79198 0,22.64569 -2.12728,43.06219 -4.45213,58.61697 h 40.01714 c 0,0 6.04098,-22.59581 6.04098,-62.00292 0,-39.4071 -23.58704,-120.52316 -52.0637,-160.79319 -15.96166,-22.57202 -35.60665,-25.3621 -50.64145,-25.34674 z m -257.58437,0.32068 v 11.99036 h 71.97127 a 11.074779,11.074779 0 0 1 11.0741,11.0741 11.074779,11.074779 0 0 1 -11.0741,11.07619 h -71.97127 v 9.65392 h 240.91282 v -43.79457 z m 0,34.14065 v -22.15029 h -35.56709 a 11.074779,11.074779 0 0 0 -11.074099,11.0741 11.074779,11.074779 0 0 0 11.074099,11.07619 z M 33.690131,130.24032 a 11.074779,11.074779 0 0 0 -11.074105,11.0741 11.074779,11.074779 0 0 0 11.074105,11.07619 H 60.471643 A 11.074779,11.074779 0 0 0 71.54575,141.31442 11.074779,11.074779 0 0 0 60.471643,130.24032 Z m 350.019229,42.289 c -0.28788,0.0231 -0.57124,0.0238 -0.84962,0.002 h -0.002 -0.002 -0.002 l -245.81475,0.34359 v 20.88629 h 19.38065 a 11.074779,11.074779 0 0 1 11.07412,11.07619 11.074779,11.074779 0 0 1 -11.07412,11.0741 h -19.38071 v 41.37275 h 18.00842 a 11.074779,11.074779 0 0 1 11.07411,11.07412 11.074779,11.074779 0 0 1 -11.07411,11.07411 h -18.00842 v 41.37276 h 7.12799 a 11.074779,11.074779 0 0 1 11.07411,11.07619 11.074779,11.074779 0 0 1 -11.07411,11.0741 h -7.12799 v 23.11652 H 440.494 c 2.34701,-15.27791 4.56666,-35.76649 4.56666,-58.61697 0,-23.70754 -6.10088,-50.38003 -13.90405,-73.36438 -7.80318,-22.98436 -17.4429,-42.48349 -23.58506,-51.32447 -7.79881,-11.22559 -23.86201,-10.23699 -23.862,-10.23699 z M 137.03874,342.95561 V 320.80532 H 63.037138 a 11.074779,11.074779 0 0 0 -11.074107,11.07619 11.074779,11.074779 0 0 0 11.074107,11.0741 z m 0,-63.52305 V 257.28433 H 25.747928 a 11.074779,11.074779 0 0 0 -11.076189,11.07412 11.074779,11.074779 0 0 0 11.076189,11.07411 z m 0,-63.52098 V 193.76129 H 50.782321 a 11.074779,11.074779 0 0 0 -11.074106,11.07619 11.074779,11.074779 0 0 0 11.074106,11.0741 z M 348.717,192.01208 h 21.88793 a 7.4632563,7.4632563 0 0 1 7.46324,7.46326 v 44.66916 a 7.4632563,7.4632563 0 0 1 -7.46324,7.46326 H 348.717 a 7.4632563,7.4632563 0 0 1 -7.46326,-7.46326 v -44.66916 a 7.4632563,7.4632563 0 0 1 7.46326,-7.46326 z m -155.56433,10.04333 h 85.8587 a 7.4632563,7.4632563 0 0 1 7.46324,7.46326 v 63.85831 a 7.4632563,7.4632563 0 0 1 -7.46324,7.46326 h -85.8587 a 7.4632563,7.4632563 0 0 1 -7.46325,-7.46326 v -63.85831 a 7.4632563,7.4632563 0 0 1 7.46325,-7.46326 z m 283.54128,86.45633 c 8.27364,0 14.98065,6.70701 14.98065,14.98066 0,8.27364 -6.70701,14.98065 -14.98065,14.98065 -8.27365,0 -14.98067,-6.70701 -14.98067,-14.98065 0,-8.27365 6.70702,-14.98066 14.98067,-14.98066 z m -285.60699,32.29358 h 21.22571 a 11.074779,11.074779 0 0 1 11.0741,11.07619 11.074779,11.074779 0 0 1 -11.0741,11.0741 h -21.22571 a 11.074779,11.074779 0 0 1 -11.07619,-11.0741 11.074779,11.074779 0 0 1 11.07619,-11.07619 z" /></g></svg>
